<svg id="visual" viewBox="0 0 1440 800" width="1440" height="800" xmlns="http://www.w3.org/2000/svg" xmlns:xlink="http://www.w3.org/1999/xlink" version="1.1"><rect x="0" y="0" width="1440" height="800" fill="#001220"></rect><defs><linearGradient id="grad1_0" x1="44.4%" y1="0%" x2="100%" y2="100%"><stop offset="13.999999999999998%" stop-color="#3ca9fa" stop-opacity="1"></stop><stop offset="86%" stop-color="#3ca9fa" stop-opacity="1"></stop></linearGradient></defs><defs><linearGradient id="grad1_1" x1="44.4%" y1="0%" x2="100%" y2="100%"><stop offset="13.999999999999998%" stop-color="#3ca9fa" stop-opacity="1"></stop><stop offset="86%" stop-color="#1a5884" stop-opacity="1"></stop></linearGradient></defs><defs><linearGradient id="grad1_2" x1="44.4%" y1="0%" x2="100%" y2="100%"><stop offset="13.999999999999998%" stop-color="#001220" stop-opacity="1"></stop><stop offset="86%" stop-color="#1a5884" stop-opacity="1"></stop></linearGradient></defs><defs><linearGradient id="grad2_0" x1="0%" y1="0%" x2="55.6%" y2="100%"><stop offset="13.999999999999998%" stop-color="#3ca9fa" stop-opacity="1"></stop><stop offset="86%" stop-color="#3ca9fa" stop-opacity="1"></stop></linearGradient></defs><defs><linearGradient id="grad2_1" x1="0%" y1="0%" x2="55.6%" y2="100%"><stop offset="13.999999999999998%" stop-color="#1a5884" stop-opacity="1"></stop><stop offset="86%" stop-color="#3ca9fa" stop-opacity="1"></stop></linearGradient></defs><defs><linearGradient id="grad2_2" x1="0%" y1="0%" x2="55.6%" y2="100%"><stop offset="13.999999999999998%" stop-color="#1a5884" stop-opacity="1"></stop><stop offset="86%" stop-color="#001220" stop-opacity="1"></stop></linearGradient></defs><g transform="translate(1440, 0)"><path d="M0 440C-12.9 384.4 -25.8 328.8 -47.2 328.6C-68.7 328.4 -98.6 383.5 -111.6 380C-124.5 376.4 -120.5 314.1 -139.2 304.7C-157.9 295.4 -199.3 339 -215.7 335.7C-232.1 332.3 -223.4 282.1 -213.5 246.4C-203.6 210.6 -192.5 189.4 -226 195.8C-259.4 202.2 -337.3 236.3 -366.8 235.7C-396.3 235.1 -377.3 199.8 -388.4 177.4C-399.5 155 -440.6 145.6 -422.2 124C-403.7 102.3 -325.7 68.5 -318.7 45.8C-311.8 23.1 -375.9 11.6 -440 0L0 0Z" fill="#0d344f"></path><path d="M0 293.3C-8.6 256.3 -17.2 219.2 -31.5 219.1C-45.8 218.9 -65.7 255.7 -74.4 253.3C-83 250.9 -80.3 209.4 -92.8 203.2C-105.2 196.9 -132.9 226 -143.8 223.8C-154.7 221.6 -148.9 188.1 -142.3 164.2C-135.7 140.4 -128.4 126.3 -150.6 130.5C-172.9 134.8 -224.9 157.6 -244.5 157.1C-264.2 156.7 -251.5 133.2 -258.9 118.3C-266.3 103.3 -293.8 97.1 -281.5 82.6C-269.1 68.2 -217.1 45.7 -212.5 30.6C-207.8 15.4 -250.6 7.7 -293.3 0L0 0Z" fill="#2a7fbd"></path><path d="M0 146.7C-4.3 128.1 -8.6 109.6 -15.7 109.5C-22.9 109.5 -32.9 127.8 -37.2 126.7C-41.5 125.5 -40.2 104.7 -46.4 101.6C-52.6 98.5 -66.4 113 -71.9 111.9C-77.4 110.8 -74.5 94 -71.2 82.1C-67.9 70.2 -64.2 63.1 -75.3 65.3C-86.5 67.4 -112.4 78.8 -122.3 78.6C-132.1 78.4 -125.8 66.6 -129.5 59.1C-133.2 51.7 -146.9 48.5 -140.7 41.3C-134.6 34.1 -108.6 22.8 -106.2 15.3C-103.9 7.7 -125.3 3.9 -146.7 0L0 0Z" fill="#3ca9fa"></path></g><g transform="translate(0, 800)"><path d="M0 -440C10.8 -370.6 21.5 -301.2 44.1 -306.8C66.7 -312.5 101.2 -393.3 118.3 -403C135.5 -412.7 135.4 -351.3 154.9 -339.3C174.5 -327.3 213.8 -364.5 235.7 -366.8C257.6 -369 262.2 -336.2 272.4 -314.4C282.6 -292.6 298.5 -281.7 308.3 -267.2C318.2 -252.7 322 -234.5 348.3 -223.8C374.6 -213.1 423.4 -209.9 400.2 -182.8C377.1 -155.6 282 -104.6 283.1 -83.1C284.1 -61.7 381.4 -69.8 423.6 -60.9C465.8 -52 452.9 -26 440 0L0 0Z" fill="#0d344f"></path><path d="M0 -293.3C7.2 -247.1 14.3 -200.8 29.4 -204.6C44.5 -208.3 67.4 -262.2 78.9 -268.7C90.3 -275.1 90.2 -234.2 103.3 -226.2C116.4 -218.2 142.5 -243 157.1 -244.5C171.8 -246 174.8 -224.2 181.6 -209.6C188.4 -195 199 -187.8 205.6 -178.1C212.1 -168.4 214.7 -156.3 232.2 -149.2C249.7 -142.1 282.3 -140 266.8 -121.9C251.4 -103.8 188 -69.7 188.7 -55.4C189.4 -41.1 254.3 -46.6 282.4 -40.6C310.6 -34.7 301.9 -17.3 293.3 0L0 0Z" fill="#2a7fbd"></path><path d="M0 -146.7C3.6 -123.5 7.2 -100.4 14.7 -102.3C22.2 -104.2 33.7 -131.1 39.4 -134.3C45.2 -137.6 45.1 -117.1 51.6 -113.1C58.2 -109.1 71.3 -121.5 78.6 -122.3C85.9 -123 87.4 -112.1 90.8 -104.8C94.2 -97.5 99.5 -93.9 102.8 -89.1C106.1 -84.2 107.3 -78.2 116.1 -74.6C124.9 -71 141.1 -70 133.4 -60.9C125.7 -51.9 94 -34.9 94.4 -27.7C94.7 -20.6 127.1 -23.3 141.2 -20.3C155.3 -17.3 151 -8.7 146.7 0L0 0Z" fill="#3ca9fa"></path></g></svg>