<svg id="visual" viewBox="0 0 300 450" width="300" height="450" xmlns="http://www.w3.org/2000/svg" xmlns:xlink="http://www.w3.org/1999/xlink" version="1.1"><rect x="0" y="0" width="300" height="450" fill="#1F2937"></rect><path d="M150 400L191 400L191 356L170 356L170 311L152 311L152 267L122 267L122 222L147 222L147 178L120 178L120 133L180 133L180 89L139 89L139 44L196 44L196 0L300 0L300 44L300 44L300 89L300 89L300 133L300 133L300 178L300 178L300 222L300 222L300 267L300 267L300 311L300 311L300 356L300 356L300 400L300 400Z" fill="#9900ff"></path><path d="M188 400L226 400L226 356L210 356L210 311L190 311L190 267L170 267L170 222L209 222L209 178L200 178L200 133L243 133L243 89L231 89L231 44L241 44L241 0L300 0L300 44L300 44L300 89L300 89L300 133L300 133L300 178L300 178L300 222L300 222L300 267L300 267L300 311L300 311L300 356L300 356L300 400L300 400Z" fill="#7700c6"></path><path d="M264 400L232 400L232 356L230 356L230 311L274 311L274 267L247 267L247 222L252 222L252 178L265 178L265 133L254 133L254 89L238 89L238 44L281 44L281 0L300 0L300 44L300 44L300 89L300 89L300 133L300 133L300 178L300 178L300 222L300 222L300 267L300 267L300 311L300 311L300 356L300 356L300 400L300 400Z" fill="#560090"></path></svg>