<svg id="visual" viewBox="0 0 300 450" width="300" height="450" xmlns="http://www.w3.org/2000/svg" xmlns:xlink="http://www.w3.org/1999/xlink" version="1.1"><rect x="0" y="0" width="300" height="450" fill="#001220"></rect><path d="M176 400L175.5 395.5C175 391 174 382 175.5 373.2C177 364.3 181 355.7 174 346.8C167 338 149 329 137.3 320C125.7 311 120.3 302 122.3 293.2C124.3 284.3 133.7 275.7 136.2 266.8C138.7 258 134.3 249 141.7 240C149 231 168 222 176.7 213.2C185.3 204.3 183.7 195.7 171.5 186.8C159.3 178 136.7 169 132.7 160C128.7 151 143.3 142 146.3 133.2C149.3 124.3 140.7 115.7 136.2 106.8C131.7 98 131.3 89 128.2 80C125 71 119 62 117.5 53.2C116 44.3 119 35.7 116.7 26.8C114.3 18 106.7 9 102.8 4.5L99 0L300 0L300 4.5C300 9 300 18 300 26.8C300 35.7 300 44.3 300 53.2C300 62 300 71 300 80C300 89 300 98 300 106.8C300 115.7 300 124.3 300 133.2C300 142 300 151 300 160C300 169 300 178 300 186.8C300 195.7 300 204.3 300 213.2C300 222 300 231 300 240C300 249 300 258 300 266.8C300 275.7 300 284.3 300 293.2C300 302 300 311 300 320C300 329 300 338 300 346.8C300 355.7 300 364.3 300 373.2C300 382 300 391 300 395.5L300 400Z" fill="#fa7268"></path><path d="M149 400L157.8 395.5C166.7 391 184.3 382 181.3 373.2C178.3 364.3 154.7 355.7 150.3 346.8C146 338 161 329 161 320C161 311 146 302 145.2 293.2C144.3 284.3 157.7 275.7 158.5 266.8C159.3 258 147.7 249 152 240C156.3 231 176.7 222 180.5 213.2C184.3 204.3 171.7 195.7 167 186.8C162.3 178 165.7 169 168.5 160C171.3 151 173.7 142 174 133.2C174.3 124.3 172.7 115.7 168.8 106.8C165 98 159 89 154.2 80C149.3 71 145.7 62 144 53.2C142.3 44.3 142.7 35.7 144.2 26.8C145.7 18 148.3 9 149.7 4.5L151 0L300 0L300 4.5C300 9 300 18 300 26.8C300 35.7 300 44.3 300 53.2C300 62 300 71 300 80C300 89 300 98 300 106.8C300 115.7 300 124.3 300 133.2C300 142 300 151 300 160C300 169 300 178 300 186.8C300 195.7 300 204.3 300 213.2C300 222 300 231 300 240C300 249 300 258 300 266.8C300 275.7 300 284.3 300 293.2C300 302 300 311 300 320C300 329 300 338 300 346.8C300 355.7 300 364.3 300 373.2C300 382 300 391 300 395.5L300 400Z" fill="#ef5f67"></path><path d="M233 400L224.5 395.5C216 391 199 382 188.8 373.2C178.7 364.3 175.3 355.7 182.8 346.8C190.3 338 208.7 329 212.7 320C216.7 311 206.3 302 208 293.2C209.7 284.3 223.3 275.7 222.2 266.8C221 258 205 249 196.3 240C187.7 231 186.3 222 183.2 213.2C180 204.3 175 195.7 182.2 186.8C189.3 178 208.7 169 212.7 160C216.7 151 205.3 142 205.8 133.2C206.3 124.3 218.7 115.7 219 106.8C219.3 98 207.7 89 198.7 80C189.7 71 183.3 62 178.7 53.2C174 44.3 171 35.7 171.8 26.8C172.7 18 177.3 9 179.7 4.5L182 0L300 0L300 4.5C300 9 300 18 300 26.8C300 35.7 300 44.3 300 53.2C300 62 300 71 300 80C300 89 300 98 300 106.8C300 115.7 300 124.3 300 133.2C300 142 300 151 300 160C300 169 300 178 300 186.8C300 195.7 300 204.3 300 213.2C300 222 300 231 300 240C300 249 300 258 300 266.8C300 275.7 300 284.3 300 293.2C300 302 300 311 300 320C300 329 300 338 300 346.8C300 355.7 300 364.3 300 373.2C300 382 300 391 300 395.5L300 400Z" fill="#e34c67"></path><path d="M210 400L214.5 395.5C219 391 228 382 235.8 373.2C243.7 364.3 250.3 355.7 251.8 346.8C253.3 338 249.7 329 245.3 320C241 311 236 302 233.3 293.2C230.7 284.3 230.3 275.7 228.3 266.8C226.3 258 222.7 249 226.3 240C230 231 241 222 244 213.2C247 204.3 242 195.7 241.7 186.8C241.3 178 245.7 169 243.8 160C242 151 234 142 227.2 133.2C220.3 124.3 214.7 115.7 216.2 106.8C217.7 98 226.3 89 228.7 80C231 71 227 62 228.2 53.2C229.3 44.3 235.7 35.7 232.5 26.8C229.3 18 216.7 9 210.3 4.5L204 0L300 0L300 4.5C300 9 300 18 300 26.8C300 35.7 300 44.3 300 53.2C300 62 300 71 300 80C300 89 300 98 300 106.8C300 115.7 300 124.3 300 133.2C300 142 300 151 300 160C300 169 300 178 300 186.8C300 195.7 300 204.3 300 213.2C300 222 300 231 300 240C300 249 300 258 300 266.8C300 275.7 300 284.3 300 293.2C300 302 300 311 300 320C300 329 300 338 300 346.8C300 355.7 300 364.3 300 373.2C300 382 300 391 300 395.5L300 400Z" fill="#d53867"></path><path d="M242 400L248.3 395.5C254.7 391 267.3 382 270.2 373.2C273 364.3 266 355.7 262.2 346.8C258.3 338 257.7 329 260.3 320C263 311 269 302 269.8 293.2C270.7 284.3 266.3 275.7 263 266.8C259.7 258 257.3 249 256 240C254.7 231 254.3 222 255.3 213.2C256.3 204.3 258.7 195.7 258.5 186.8C258.3 178 255.7 169 259.5 160C263.3 151 273.7 142 274.8 133.2C276 124.3 268 115.7 265.3 106.8C262.7 98 265.3 89 268.8 80C272.3 71 276.7 62 278 53.2C279.3 44.3 277.7 35.7 274.3 26.8C271 18 266 9 263.5 4.5L261 0L300 0L300 4.5C300 9 300 18 300 26.8C300 35.7 300 44.3 300 53.2C300 62 300 71 300 80C300 89 300 98 300 106.8C300 115.7 300 124.3 300 133.2C300 142 300 151 300 160C300 169 300 178 300 186.8C300 195.7 300 204.3 300 213.2C300 222 300 231 300 240C300 249 300 258 300 266.8C300 275.7 300 284.3 300 293.2C300 302 300 311 300 320C300 329 300 338 300 346.8C300 355.7 300 364.3 300 373.2C300 382 300 391 300 395.5L300 400Z" fill="#c62368"></path></svg>